<svg width="72" height="72" viewBox="0 0 72 72" fill="none" xmlns="http://www.w3.org/2000/svg">
<circle cx="36.6923" cy="29.7693" r="9" fill="#F0F8FE"/>
<path d="M36 7C48.6319 7 59 18.4866 59 31.5C59 44.5817 51.4947 58.7282 39.9648 64.1172C37.4476 65.2939 34.5524 65.2939 32.0352 64.1172C20.5054 58.7282 13 44.5817 13 31.5C13 18.4866 23.3681 7 36 7ZM36 23C32.1339 23 29 26.134 29 30C29 33.8661 32.1339 37 36 37C39.8661 37 43 33.8661 43 30C43 26.134 39.8661 23 36 23Z" fill="#00A6F4" stroke="#F0F8FE" stroke-width="2"/>
</svg>
